<mxfile host="drawio-plugin" modified="2024-02-05T18:11:47.039Z" agent="5.0 (Windows NT 10.0; Win64; x64) AppleWebKit/537.36 (KHTML, like Gecko) Chrome/111.0.0.0 Safari/537.36" version="20.5.3" etag="yEm_vlNU882kvPc7I8t6" type="embed"><diagram id="8XITtoyjqvFha4r6XIhv" name="Page-1"><mxGraphModel dx="1170" dy="758" grid="1" gridSize="10" guides="1" tooltips="1" connect="1" arrows="1" fold="1" page="1" pageScale="1" pageWidth="1200" pageHeight="1920" math="0" shadow="0"><root><mxCell id="0"/><mxCell id="1" parent="0"/><mxCell id="33" value="autores" style="swimlane;fontStyle=3;align=center;verticalAlign=top;childLayout=stackLayout;horizontal=1;startSize=26;horizontalStack=0;resizeParent=1;resizeLast=0;collapsible=1;marginBottom=0;rounded=0;shadow=0;strokeWidth=1;fillColor=#dae8fc;strokeColor=#6c8ebf;fontSize=14;fontFamily=Verdana;" vertex="1" parent="1"><mxGeometry x="125" y="40" width="350" height="164" as="geometry"><mxRectangle x="230" y="140" width="160" height="26" as="alternateBounds"/></mxGeometry></mxCell><mxCell id="34" value="id_autor SERIAL PRIMARY KEY" style="text;align=left;verticalAlign=top;spacingLeft=4;spacingRight=4;overflow=hidden;rotatable=0;points=[[0,0.5],[1,0.5]];portConstraint=eastwest;fontStyle=1;fontSize=14;fontFamily=Verdana;" vertex="1" parent="33"><mxGeometry y="26" width="350" height="26" as="geometry"/></mxCell><mxCell id="35" value="nombre_autor VARCHAR(100) NOT NULL" style="text;align=left;verticalAlign=top;spacingLeft=4;spacingRight=4;overflow=hidden;rotatable=0;points=[[0,0.5],[1,0.5]];portConstraint=eastwest;rounded=0;shadow=0;html=0;fontSize=14;fontFamily=Verdana;" vertex="1" parent="33"><mxGeometry y="52" width="350" height="26" as="geometry"/></mxCell><mxCell id="36" value="fecha_nascimiento DATE" style="text;align=left;verticalAlign=top;spacingLeft=4;spacingRight=4;overflow=hidden;rotatable=0;points=[[0,0.5],[1,0.5]];portConstraint=eastwest;rounded=0;shadow=0;html=0;fontSize=14;fontFamily=Verdana;" vertex="1" parent="33"><mxGeometry y="78" width="350" height="26" as="geometry"/></mxCell><mxCell id="37" value="nacionalidad VARCHAR(50)" style="text;strokeColor=none;fillColor=none;align=left;verticalAlign=top;spacingLeft=4;spacingRight=4;overflow=hidden;rotatable=0;points=[[0,0.5],[1,0.5]];portConstraint=eastwest;whiteSpace=wrap;html=1;fontSize=14;fontFamily=Verdana;" vertex="1" parent="33"><mxGeometry y="104" width="350" height="26" as="geometry"/></mxCell><mxCell id="38" value="" style="line;html=1;strokeWidth=1;align=left;verticalAlign=middle;spacingTop=-1;spacingLeft=3;spacingRight=3;rotatable=0;labelPosition=right;points=[];portConstraint=eastwest;fontSize=14;fontFamily=Verdana;" vertex="1" parent="33"><mxGeometry y="130" width="350" height="8" as="geometry"/></mxCell><mxCell id="39" value="autores_libros" style="swimlane;fontStyle=3;align=center;verticalAlign=top;childLayout=stackLayout;horizontal=1;startSize=26;horizontalStack=0;resizeParent=1;resizeLast=0;collapsible=1;marginBottom=0;rounded=0;shadow=0;strokeWidth=1;fillColor=#fff2cc;strokeColor=#d6b656;fontSize=14;fontFamily=Verdana;" vertex="1" parent="1"><mxGeometry x="636" y="40" width="440" height="137" as="geometry"><mxRectangle x="550" y="140" width="160" height="26" as="alternateBounds"/></mxGeometry></mxCell><mxCell id="40" value="id_autor INTEGER REFERENCES autores(id_autor)&#10;" style="text;align=left;verticalAlign=top;spacingLeft=4;spacingRight=4;overflow=hidden;rotatable=0;points=[[0,0.5],[1,0.5]];portConstraint=eastwest;rounded=0;shadow=0;html=0;fontStyle=1;fontSize=14;fontFamily=Verdana;" vertex="1" parent="39"><mxGeometry y="26" width="440" height="26" as="geometry"/></mxCell><mxCell id="41" value="id_libro INTEGER REFERENCES libros(id_libros)" style="text;align=left;verticalAlign=top;spacingLeft=4;spacingRight=4;overflow=hidden;rotatable=0;points=[[0,0.5],[1,0.5]];portConstraint=eastwest;rounded=0;shadow=0;html=0;fontStyle=1;fontSize=14;fontFamily=Verdana;" vertex="1" parent="39"><mxGeometry y="52" width="440" height="26" as="geometry"/></mxCell><mxCell id="42" value="PRIMARY KEY (id_autor, id_libro)" style="text;align=left;verticalAlign=top;spacingLeft=4;spacingRight=4;overflow=hidden;rotatable=0;points=[[0,0.5],[1,0.5]];portConstraint=eastwest;fontStyle=1;fontSize=14;fontFamily=Verdana;" vertex="1" parent="39"><mxGeometry y="78" width="440" height="26" as="geometry"/></mxCell><mxCell id="43" value="" style="line;html=1;strokeWidth=1;align=left;verticalAlign=middle;spacingTop=-1;spacingLeft=3;spacingRight=3;rotatable=0;labelPosition=right;points=[];portConstraint=eastwest;fontSize=14;fontFamily=Verdana;" vertex="1" parent="39"><mxGeometry y="104" width="440" height="8" as="geometry"/></mxCell><mxCell id="44" value="" style="endArrow=open;shadow=0;strokeWidth=1;rounded=0;endFill=1;edgeStyle=elbowEdgeStyle;elbow=vertical;fontSize=14;fontFamily=Verdana;" edge="1" parent="1" source="33" target="39"><mxGeometry x="0.5" y="41" relative="1" as="geometry"><mxPoint x="428" y="142" as="sourcePoint"/><mxPoint x="588" y="142" as="targetPoint"/><mxPoint x="-40" y="32" as="offset"/></mxGeometry></mxCell><mxCell id="45" value="1" style="resizable=0;align=left;verticalAlign=bottom;labelBackgroundColor=none;fontSize=14;fontFamily=Verdana;" connectable="0" vertex="1" parent="44"><mxGeometry x="-1" relative="1" as="geometry"><mxPoint x="7" as="offset"/></mxGeometry></mxCell><mxCell id="46" value="n" style="resizable=0;align=right;verticalAlign=bottom;labelBackgroundColor=none;fontSize=14;fontFamily=Verdana;" connectable="0" vertex="1" parent="44"><mxGeometry x="1" relative="1" as="geometry"><mxPoint x="-13" as="offset"/></mxGeometry></mxCell><mxCell id="47" value="escribió" style="text;html=1;resizable=0;points=[];;align=center;verticalAlign=middle;labelBackgroundColor=none;rounded=0;shadow=0;strokeWidth=1;fontSize=14;fontFamily=Verdana;" vertex="1" connectable="0" parent="44"><mxGeometry x="0.5" y="49" relative="1" as="geometry"><mxPoint x="-38" y="40" as="offset"/></mxGeometry></mxCell><mxCell id="48" value="libros" style="swimlane;fontStyle=3;align=center;verticalAlign=top;childLayout=stackLayout;horizontal=1;startSize=26;horizontalStack=0;resizeParent=1;resizeLast=0;collapsible=1;marginBottom=0;rounded=0;shadow=0;strokeWidth=1;fillColor=#dae8fc;strokeColor=#6c8ebf;fontSize=14;fontFamily=Verdana;" vertex="1" parent="1"><mxGeometry x="636" y="330" width="440" height="294" as="geometry"><mxRectangle x="230" y="140" width="160" height="26" as="alternateBounds"/></mxGeometry></mxCell><mxCell id="49" value="id_libro SERIAL PRIMARY KEY" style="text;align=left;verticalAlign=top;spacingLeft=4;spacingRight=4;overflow=hidden;rotatable=0;points=[[0,0.5],[1,0.5]];portConstraint=eastwest;fontSize=14;fontFamily=Verdana;fontStyle=1" vertex="1" parent="48"><mxGeometry y="26" width="440" height="26" as="geometry"/></mxCell><mxCell id="50" value="titulo TEXT NOT NULL" style="text;strokeColor=none;fillColor=none;align=left;verticalAlign=top;spacingLeft=4;spacingRight=4;overflow=hidden;rotatable=0;points=[[0,0.5],[1,0.5]];portConstraint=eastwest;whiteSpace=wrap;html=1;fontSize=14;fontFamily=Verdana;" vertex="1" parent="48"><mxGeometry y="52" width="440" height="26" as="geometry"/></mxCell><mxCell id="51" value="genero VARCHAR(50)" style="text;strokeColor=none;fillColor=none;align=left;verticalAlign=top;spacingLeft=4;spacingRight=4;overflow=hidden;rotatable=0;points=[[0,0.5],[1,0.5]];portConstraint=eastwest;whiteSpace=wrap;html=1;fontSize=14;fontFamily=Verdana;" vertex="1" parent="48"><mxGeometry y="78" width="440" height="26" as="geometry"/></mxCell><mxCell id="52" value="ano_publicacion INTERGER" style="text;strokeColor=none;fillColor=none;align=left;verticalAlign=top;spacingLeft=4;spacingRight=4;overflow=hidden;rotatable=0;points=[[0,0.5],[1,0.5]];portConstraint=eastwest;whiteSpace=wrap;html=1;fontSize=14;fontFamily=Verdana;" vertex="1" parent="48"><mxGeometry y="104" width="440" height="26" as="geometry"/></mxCell><mxCell id="53" value="disponible BOOLEAN DEFAULT TRUE" style="text;strokeColor=none;fillColor=none;align=left;verticalAlign=top;spacingLeft=4;spacingRight=4;overflow=hidden;rotatable=0;points=[[0,0.5],[1,0.5]];portConstraint=eastwest;whiteSpace=wrap;html=1;fontSize=14;fontFamily=Verdana;" vertex="1" parent="48"><mxGeometry y="130" width="440" height="26" as="geometry"/></mxCell><mxCell id="54" value="hora_publicacion TIME" style="text;strokeColor=none;fillColor=none;align=left;verticalAlign=top;spacingLeft=4;spacingRight=4;overflow=hidden;rotatable=0;points=[[0,0.5],[1,0.5]];portConstraint=eastwest;whiteSpace=wrap;html=1;fontSize=14;fontFamily=Verdana;" vertex="1" parent="48"><mxGeometry y="156" width="440" height="26" as="geometry"/></mxCell><mxCell id="55" value="fecha_hora_atualizacion TIMESTAMP" style="text;strokeColor=none;fillColor=none;align=left;verticalAlign=top;spacingLeft=4;spacingRight=4;overflow=hidden;rotatable=0;points=[[0,0.5],[1,0.5]];portConstraint=eastwest;whiteSpace=wrap;html=1;fontSize=14;fontFamily=Verdana;" vertex="1" parent="48"><mxGeometry y="182" width="440" height="26" as="geometry"/></mxCell><mxCell id="56" value="precio NUMERIC(10,2)" style="text;strokeColor=none;fillColor=none;align=left;verticalAlign=top;spacingLeft=4;spacingRight=4;overflow=hidden;rotatable=0;points=[[0,0.5],[1,0.5]];portConstraint=eastwest;whiteSpace=wrap;html=1;fontSize=14;fontFamily=Verdana;" vertex="1" parent="48"><mxGeometry y="208" width="440" height="26" as="geometry"/></mxCell><mxCell id="57" value="codigo_caracteres CHAR(5)" style="text;align=left;verticalAlign=top;spacingLeft=4;spacingRight=4;overflow=hidden;rotatable=0;points=[[0,0.5],[1,0.5]];portConstraint=eastwest;rounded=0;shadow=0;html=0;fontSize=14;fontFamily=Verdana;" vertex="1" parent="48"><mxGeometry y="234" width="440" height="26" as="geometry"/></mxCell><mxCell id="58" value="" style="line;html=1;strokeWidth=1;align=left;verticalAlign=middle;spacingTop=-1;spacingLeft=3;spacingRight=3;rotatable=0;labelPosition=right;points=[];portConstraint=eastwest;fontSize=14;fontFamily=Verdana;" vertex="1" parent="48"><mxGeometry y="260" width="440" height="8" as="geometry"/></mxCell><mxCell id="59" value="" style="endArrow=open;shadow=0;strokeWidth=1;rounded=0;endFill=1;edgeStyle=elbowEdgeStyle;elbow=vertical;exitX=0.5;exitY=0;exitDx=0;exitDy=0;entryX=0.5;entryY=1;entryDx=0;entryDy=0;fontSize=14;fontFamily=Verdana;" edge="1" parent="1" source="48" target="39"><mxGeometry x="0.5" y="41" relative="1" as="geometry"><mxPoint x="518" y="300" as="sourcePoint"/><mxPoint x="678" y="224" as="targetPoint"/><mxPoint x="-40" y="32" as="offset"/></mxGeometry></mxCell><mxCell id="60" value="1" style="resizable=0;align=left;verticalAlign=bottom;labelBackgroundColor=none;fontSize=14;fontFamily=Verdana;" connectable="0" vertex="1" parent="59"><mxGeometry x="-1" relative="1" as="geometry"><mxPoint as="offset"/></mxGeometry></mxCell><mxCell id="61" value="n" style="resizable=0;align=right;verticalAlign=bottom;labelBackgroundColor=none;fontSize=14;fontFamily=Verdana;" connectable="0" vertex="1" parent="59"><mxGeometry x="1" relative="1" as="geometry"><mxPoint x="13" y="29" as="offset"/></mxGeometry></mxCell><mxCell id="62" value="fue escrito" style="text;html=1;resizable=0;points=[];;align=center;verticalAlign=middle;labelBackgroundColor=none;rounded=0;shadow=0;strokeWidth=1;fontSize=14;fontFamily=Verdana;" connectable="0" vertex="1" parent="59"><mxGeometry x="0.5" y="49" relative="1" as="geometry"><mxPoint x="89" y="28" as="offset"/></mxGeometry></mxCell></root></mxGraphModel></diagram></mxfile>